<mxfile host="app.diagrams.net" modified="2024-03-23T21:08:56.067Z" agent="Mozilla/5.0 (Windows NT 10.0; Win64; x64) AppleWebKit/537.36 (KHTML, like Gecko) Chrome/122.0.0.0 Safari/537.36" etag="yx2YFwe30ZhpPHp2LW6F" version="24.0.7" type="device">
  <diagram name="PÃ¡gina-1" id="vbOGfk5iJTFSjeD28d8R">
    <mxGraphModel dx="1500" dy="746" grid="1" gridSize="10" guides="1" tooltips="1" connect="1" arrows="1" fold="1" page="1" pageScale="1" pageWidth="827" pageHeight="1169" math="0" shadow="0">
      <root>
        <mxCell id="0" />
        <mxCell id="1" parent="0" />
        <mxCell id="0VPr1rxeREGL98D7X7g_-7" value="" style="edgeStyle=orthogonalEdgeStyle;rounded=0;orthogonalLoop=1;jettySize=auto;html=1;" edge="1" parent="1" source="0VPr1rxeREGL98D7X7g_-1" target="0VPr1rxeREGL98D7X7g_-4">
          <mxGeometry relative="1" as="geometry" />
        </mxCell>
        <mxCell id="0VPr1rxeREGL98D7X7g_-1" value="1" style="ellipse;whiteSpace=wrap;html=1;aspect=fixed;" vertex="1" parent="1">
          <mxGeometry x="400" y="40" width="50" height="50" as="geometry" />
        </mxCell>
        <mxCell id="0VPr1rxeREGL98D7X7g_-2" value="&lt;div style=&quot;background-color: rgb(30, 31, 34); color: rgb(188, 190, 196); font-size: 10px;&quot;&gt;&lt;pre style=&quot;font-family: &amp;quot;JetBrains Mono&amp;quot;, monospace;&quot;&gt;&lt;span style=&quot;color:#cf8e6d;&quot;&gt;return this &lt;/span&gt;== other ||&lt;/pre&gt;&lt;/div&gt;" style="text;html=1;align=center;verticalAlign=middle;resizable=0;points=[];autosize=1;strokeColor=none;fillColor=none;" vertex="1" parent="1">
          <mxGeometry x="455" y="40" width="150" height="50" as="geometry" />
        </mxCell>
        <mxCell id="0VPr1rxeREGL98D7X7g_-21" style="edgeStyle=orthogonalEdgeStyle;rounded=0;orthogonalLoop=1;jettySize=auto;html=1;" edge="1" parent="1" source="0VPr1rxeREGL98D7X7g_-3">
          <mxGeometry relative="1" as="geometry">
            <mxPoint x="395" y="350" as="targetPoint" />
          </mxGeometry>
        </mxCell>
        <mxCell id="0VPr1rxeREGL98D7X7g_-3" value="5" style="ellipse;whiteSpace=wrap;html=1;aspect=fixed;" vertex="1" parent="1">
          <mxGeometry x="370" y="260" width="50" height="50" as="geometry" />
        </mxCell>
        <mxCell id="0VPr1rxeREGL98D7X7g_-4" value="2" style="ellipse;whiteSpace=wrap;html=1;aspect=fixed;" vertex="1" parent="1">
          <mxGeometry x="400" y="130" width="50" height="50" as="geometry" />
        </mxCell>
        <mxCell id="0VPr1rxeREGL98D7X7g_-8" value="4" style="ellipse;whiteSpace=wrap;html=1;aspect=fixed;" vertex="1" parent="1">
          <mxGeometry x="250" y="260" width="50" height="50" as="geometry" />
        </mxCell>
        <mxCell id="0VPr1rxeREGL98D7X7g_-9" value="3" style="ellipse;whiteSpace=wrap;html=1;aspect=fixed;" vertex="1" parent="1">
          <mxGeometry x="310" y="180" width="50" height="50" as="geometry" />
        </mxCell>
        <mxCell id="0VPr1rxeREGL98D7X7g_-11" value="&lt;div style=&quot;background-color: rgb(30, 31, 34); color: rgb(188, 190, 196); font-size: 10px;&quot;&gt;&lt;pre style=&quot;font-family: &amp;quot;JetBrains Mono&amp;quot;, monospace;&quot;&gt;&lt;span style=&quot;color:#cf8e6d;&quot;&gt;if &lt;/span&gt;(one == other)&lt;/pre&gt;&lt;/div&gt;" style="text;html=1;align=center;verticalAlign=middle;resizable=0;points=[];autosize=1;strokeColor=none;fillColor=none;" vertex="1" parent="1">
          <mxGeometry x="175" y="180" width="120" height="50" as="geometry" />
        </mxCell>
        <mxCell id="0VPr1rxeREGL98D7X7g_-12" value="" style="endArrow=classic;html=1;rounded=0;entryX=1;entryY=0;entryDx=0;entryDy=0;exitX=0;exitY=0.5;exitDx=0;exitDy=0;" edge="1" parent="1" source="0VPr1rxeREGL98D7X7g_-4" target="0VPr1rxeREGL98D7X7g_-9">
          <mxGeometry width="50" height="50" relative="1" as="geometry">
            <mxPoint x="370" y="260" as="sourcePoint" />
            <mxPoint x="420" y="210" as="targetPoint" />
          </mxGeometry>
        </mxCell>
        <mxCell id="0VPr1rxeREGL98D7X7g_-13" value="&lt;div style=&quot;background-color: rgb(30, 31, 34); color: rgb(188, 190, 196); font-size: 10px;&quot;&gt;&lt;pre style=&quot;font-family: &amp;quot;JetBrains Mono&amp;quot;, monospace;&quot;&gt;other &lt;span style=&quot;color:#cf8e6d;&quot;&gt;instanceof &lt;/span&gt;NTree &amp;amp;&amp;amp; equalTrees(&lt;span style=&quot;color:#cf8e6d;&quot;&gt;this&lt;/span&gt;, ((NTree&amp;lt;&lt;span style=&quot;color:#16baac;&quot;&gt;T&lt;/span&gt;&amp;gt;) other));&lt;/pre&gt;&lt;/div&gt;" style="text;whiteSpace=wrap;html=1;" vertex="1" parent="1">
          <mxGeometry x="455" y="130" width="490" height="70" as="geometry" />
        </mxCell>
        <mxCell id="0VPr1rxeREGL98D7X7g_-14" value="" style="endArrow=classic;html=1;rounded=0;entryX=0.5;entryY=0;entryDx=0;entryDy=0;" edge="1" parent="1" target="0VPr1rxeREGL98D7X7g_-1">
          <mxGeometry width="50" height="50" relative="1" as="geometry">
            <mxPoint x="425" y="10" as="sourcePoint" />
            <mxPoint x="464" y="-60" as="targetPoint" />
          </mxGeometry>
        </mxCell>
        <mxCell id="0VPr1rxeREGL98D7X7g_-15" value="" style="endArrow=classic;html=1;rounded=0;entryX=1;entryY=0;entryDx=0;entryDy=0;exitX=0;exitY=1;exitDx=0;exitDy=0;" edge="1" parent="1" source="0VPr1rxeREGL98D7X7g_-9" target="0VPr1rxeREGL98D7X7g_-8">
          <mxGeometry width="50" height="50" relative="1" as="geometry">
            <mxPoint x="310" y="210" as="sourcePoint" />
            <mxPoint x="280" y="260" as="targetPoint" />
          </mxGeometry>
        </mxCell>
        <mxCell id="0VPr1rxeREGL98D7X7g_-16" value="&lt;div style=&quot;background-color: rgb(30, 31, 34); color: rgb(188, 190, 196); font-size: 10px;&quot;&gt;&lt;pre style=&quot;font-family: &amp;quot;JetBrains Mono&amp;quot;, monospace;&quot;&gt;&lt;span style=&quot;color:#cf8e6d;&quot;&gt;return true&lt;/span&gt;;&lt;/pre&gt;&lt;/div&gt;" style="text;whiteSpace=wrap;html=1;" vertex="1" parent="1">
          <mxGeometry x="175" y="260" width="120" height="70" as="geometry" />
        </mxCell>
        <mxCell id="0VPr1rxeREGL98D7X7g_-17" value="" style="endArrow=classic;html=1;rounded=0;entryX=0;entryY=0;entryDx=0;entryDy=0;exitX=1;exitY=1;exitDx=0;exitDy=0;" edge="1" parent="1" source="0VPr1rxeREGL98D7X7g_-9" target="0VPr1rxeREGL98D7X7g_-3">
          <mxGeometry width="50" height="50" relative="1" as="geometry">
            <mxPoint x="327" y="233" as="sourcePoint" />
            <mxPoint x="285" y="270" as="targetPoint" />
          </mxGeometry>
        </mxCell>
        <mxCell id="0VPr1rxeREGL98D7X7g_-18" value="&lt;div style=&quot;background-color: rgb(30, 31, 34); color: rgb(188, 190, 196); font-size: 10px;&quot;&gt;&lt;pre style=&quot;font-family: &amp;quot;JetBrains Mono&amp;quot;, monospace;&quot;&gt;&lt;span style=&quot;color:#cf8e6d;&quot;&gt;if &lt;/span&gt;(one != &lt;span style=&quot;color:#cf8e6d;&quot;&gt;null &lt;/span&gt;&amp;amp;&amp;amp; other != &lt;span style=&quot;color:#cf8e6d;&quot;&gt;null&lt;/span&gt;)&lt;/pre&gt;&lt;/div&gt;" style="text;whiteSpace=wrap;html=1;" vertex="1" parent="1">
          <mxGeometry x="430" y="260" width="270" height="70" as="geometry" />
        </mxCell>
        <mxCell id="0VPr1rxeREGL98D7X7g_-22" value="6" style="ellipse;whiteSpace=wrap;html=1;aspect=fixed;" vertex="1" parent="1">
          <mxGeometry x="370" y="350" width="50" height="50" as="geometry" />
        </mxCell>
        <mxCell id="0VPr1rxeREGL98D7X7g_-23" value="&lt;div style=&quot;background-color: rgb(30, 31, 34); color: rgb(188, 190, 196); font-size: 10px;&quot;&gt;&lt;pre style=&quot;font-family: &amp;quot;JetBrains Mono&amp;quot;, monospace;&quot;&gt;Iterator&amp;lt;&lt;span style=&quot;color:#16baac;&quot;&gt;T&lt;/span&gt;&amp;gt; it1 = one.iterator();&lt;/pre&gt;&lt;/div&gt;" style="text;whiteSpace=wrap;html=1;" vertex="1" parent="1">
          <mxGeometry x="430" y="350" width="270" height="70" as="geometry" />
        </mxCell>
        <mxCell id="0VPr1rxeREGL98D7X7g_-26" value="7" style="ellipse;whiteSpace=wrap;html=1;aspect=fixed;" vertex="1" parent="1">
          <mxGeometry x="250" y="410" width="50" height="50" as="geometry" />
        </mxCell>
        <mxCell id="0VPr1rxeREGL98D7X7g_-27" value="&lt;div style=&quot;background-color: rgb(30, 31, 34); color: rgb(188, 190, 196); font-size: 10px;&quot;&gt;&lt;pre style=&quot;font-family: &amp;quot;JetBrains Mono&amp;quot;, monospace;&quot;&gt;Iterator&amp;lt;&lt;span style=&quot;color:#16baac;&quot;&gt;T&lt;/span&gt;&amp;gt; it2 = other.iterator();&lt;/pre&gt;&lt;/div&gt;" style="text;whiteSpace=wrap;html=1;" vertex="1" parent="1">
          <mxGeometry x="45" y="410" width="280" height="70" as="geometry" />
        </mxCell>
        <mxCell id="0VPr1rxeREGL98D7X7g_-28" value="&lt;div style=&quot;background-color: rgb(30, 31, 34); color: rgb(188, 190, 196); font-size: 10px;&quot;&gt;&lt;pre style=&quot;font-family: &amp;quot;JetBrains Mono&amp;quot;, monospace;&quot;&gt;&lt;span style=&quot;color:#cf8e6d;&quot;&gt;while&lt;/span&gt;(it1.hasNext() &amp;amp;&amp;amp; it2.hasNext())&lt;/pre&gt;&lt;/div&gt;" style="text;whiteSpace=wrap;html=1;" vertex="1" parent="1">
          <mxGeometry x="420" y="450" width="300" height="70" as="geometry" />
        </mxCell>
        <mxCell id="0VPr1rxeREGL98D7X7g_-30" value="8" style="ellipse;whiteSpace=wrap;html=1;aspect=fixed;" vertex="1" parent="1">
          <mxGeometry x="364" y="450" width="50" height="50" as="geometry" />
        </mxCell>
        <mxCell id="0VPr1rxeREGL98D7X7g_-34" value="" style="endArrow=classic;html=1;rounded=0;entryX=0;entryY=0.5;entryDx=0;entryDy=0;exitX=1;exitY=0.5;exitDx=0;exitDy=0;" edge="1" parent="1" source="0VPr1rxeREGL98D7X7g_-26" target="0VPr1rxeREGL98D7X7g_-30">
          <mxGeometry width="50" height="50" relative="1" as="geometry">
            <mxPoint x="300" y="440" as="sourcePoint" />
            <mxPoint x="350" y="390" as="targetPoint" />
          </mxGeometry>
        </mxCell>
        <mxCell id="0VPr1rxeREGL98D7X7g_-35" value="" style="endArrow=classic;html=1;rounded=0;exitX=0;exitY=0.5;exitDx=0;exitDy=0;entryX=1;entryY=0;entryDx=0;entryDy=0;" edge="1" parent="1" source="0VPr1rxeREGL98D7X7g_-22" target="0VPr1rxeREGL98D7X7g_-26">
          <mxGeometry width="50" height="50" relative="1" as="geometry">
            <mxPoint x="240" y="460" as="sourcePoint" />
            <mxPoint x="290" y="410" as="targetPoint" />
          </mxGeometry>
        </mxCell>
        <mxCell id="0VPr1rxeREGL98D7X7g_-36" value="11" style="ellipse;whiteSpace=wrap;html=1;aspect=fixed;" vertex="1" parent="1">
          <mxGeometry x="464" y="515" width="50" height="50" as="geometry" />
        </mxCell>
        <mxCell id="0VPr1rxeREGL98D7X7g_-37" value="" style="endArrow=classic;html=1;rounded=0;entryX=0;entryY=0.5;entryDx=0;entryDy=0;exitX=1;exitY=0.5;exitDx=0;exitDy=0;" edge="1" parent="1" target="0VPr1rxeREGL98D7X7g_-36">
          <mxGeometry width="50" height="50" relative="1" as="geometry">
            <mxPoint x="400" y="500" as="sourcePoint" />
            <mxPoint x="450" y="455" as="targetPoint" />
          </mxGeometry>
        </mxCell>
        <mxCell id="0VPr1rxeREGL98D7X7g_-38" value="&lt;div style=&quot;background-color: rgb(30, 31, 34); color: rgb(188, 190, 196); font-size: 10px;&quot;&gt;&lt;pre style=&quot;font-family: &amp;quot;JetBrains Mono&amp;quot;, monospace;&quot;&gt;&lt;span style=&quot;color:#cf8e6d;&quot;&gt;if&lt;/span&gt;(!it1.hasNext() &amp;amp;&amp;amp; !it2.hasNext())&lt;/pre&gt;&lt;/div&gt;" style="text;whiteSpace=wrap;html=1;" vertex="1" parent="1">
          <mxGeometry x="520" y="515" width="270" height="60" as="geometry" />
        </mxCell>
        <mxCell id="0VPr1rxeREGL98D7X7g_-39" value="12" style="ellipse;whiteSpace=wrap;html=1;aspect=fixed;" vertex="1" parent="1">
          <mxGeometry x="555" y="595" width="50" height="50" as="geometry" />
        </mxCell>
        <mxCell id="0VPr1rxeREGL98D7X7g_-40" value="" style="endArrow=classic;html=1;rounded=0;entryX=0;entryY=0;entryDx=0;entryDy=0;exitX=1;exitY=0.5;exitDx=0;exitDy=0;" edge="1" parent="1" target="0VPr1rxeREGL98D7X7g_-39">
          <mxGeometry width="50" height="50" relative="1" as="geometry">
            <mxPoint x="508" y="560" as="sourcePoint" />
            <mxPoint x="558" y="515" as="targetPoint" />
          </mxGeometry>
        </mxCell>
        <mxCell id="0VPr1rxeREGL98D7X7g_-43" value="&lt;div style=&quot;background-color:#1e1f22;color:#bcbec4&quot;&gt;&lt;pre style=&quot;font-family: &amp;quot;JetBrains Mono&amp;quot;, monospace;&quot;&gt;&lt;span style=&quot;color: rgb(207, 142, 109);&quot;&gt;&lt;font style=&quot;font-size: 10px;&quot;&gt;return true&lt;/font&gt;&lt;/span&gt;&lt;/pre&gt;&lt;/div&gt;" style="text;whiteSpace=wrap;html=1;" vertex="1" parent="1">
          <mxGeometry x="555" y="640" width="110" height="70" as="geometry" />
        </mxCell>
        <mxCell id="0VPr1rxeREGL98D7X7g_-44" value="13" style="ellipse;whiteSpace=wrap;html=1;aspect=fixed;" vertex="1" parent="1">
          <mxGeometry x="370" y="595" width="50" height="50" as="geometry" />
        </mxCell>
        <mxCell id="0VPr1rxeREGL98D7X7g_-45" value="" style="endArrow=classic;html=1;rounded=0;entryX=0.5;entryY=0;entryDx=0;entryDy=0;exitX=0;exitY=1;exitDx=0;exitDy=0;" edge="1" parent="1" source="0VPr1rxeREGL98D7X7g_-36" target="0VPr1rxeREGL98D7X7g_-44">
          <mxGeometry width="50" height="50" relative="1" as="geometry">
            <mxPoint x="480" y="560" as="sourcePoint" />
            <mxPoint x="527" y="610" as="targetPoint" />
          </mxGeometry>
        </mxCell>
        <mxCell id="0VPr1rxeREGL98D7X7g_-46" value="&lt;div style=&quot;background-color:#1e1f22;color:#bcbec4&quot;&gt;&lt;pre style=&quot;font-family: &amp;quot;JetBrains Mono&amp;quot;, monospace;&quot;&gt;&lt;span style=&quot;color: rgb(207, 142, 109);&quot;&gt;&lt;font style=&quot;font-size: 10px;&quot;&gt;return false&lt;/font&gt;&lt;/span&gt;&lt;/pre&gt;&lt;/div&gt;" style="text;whiteSpace=wrap;html=1;" vertex="1" parent="1">
          <mxGeometry x="360" y="640" width="120" height="70" as="geometry" />
        </mxCell>
        <mxCell id="0VPr1rxeREGL98D7X7g_-47" value="" style="endArrow=classic;html=1;rounded=0;entryX=1;entryY=0;entryDx=0;entryDy=0;" edge="1" parent="1" target="0VPr1rxeREGL98D7X7g_-48">
          <mxGeometry width="50" height="50" relative="1" as="geometry">
            <mxPoint x="370" y="490" as="sourcePoint" />
            <mxPoint x="301" y="518" as="targetPoint" />
          </mxGeometry>
        </mxCell>
        <mxCell id="0VPr1rxeREGL98D7X7g_-48" value="9" style="ellipse;whiteSpace=wrap;html=1;aspect=fixed;" vertex="1" parent="1">
          <mxGeometry x="250" y="510" width="50" height="50" as="geometry" />
        </mxCell>
        <UserObject label="&lt;div style=&quot;background-color: rgb(30, 31, 34); color: rgb(188, 190, 196); font-size: 10px;&quot;&gt;&lt;pre style=&quot;font-family: &amp;quot;JetBrains Mono&amp;quot;, monospace;&quot;&gt;&lt;span style=&quot;color:#cf8e6d;&quot;&gt;if&lt;/span&gt;(!it1.next().equals(it2.next()))&lt;/pre&gt;&lt;/div&gt;" link="&lt;div style=&quot;background-color:#1e1f22;color:#bcbec4&quot;&gt;&lt;pre style=&quot;font-family:&#39;JetBrains Mono&#39;,monospace;font-size:9.8pt;&quot;&gt;&lt;span style=&quot;color:#cf8e6d;&quot;&gt;if&lt;/span&gt;(!it1.next().equals(it2.next()))&lt;/pre&gt;&lt;/div&gt;" id="0VPr1rxeREGL98D7X7g_-49">
          <mxCell style="text;whiteSpace=wrap;html=1;" vertex="1" parent="1">
            <mxGeometry x="50" y="510" width="280" height="70" as="geometry" />
          </mxCell>
        </UserObject>
        <mxCell id="0VPr1rxeREGL98D7X7g_-50" value="10" style="ellipse;whiteSpace=wrap;html=1;aspect=fixed;" vertex="1" parent="1">
          <mxGeometry x="160" y="595" width="50" height="50" as="geometry" />
        </mxCell>
        <mxCell id="0VPr1rxeREGL98D7X7g_-51" value="&lt;div style=&quot;background-color:#1e1f22;color:#bcbec4&quot;&gt;&lt;pre style=&quot;font-family: &amp;quot;JetBrains Mono&amp;quot;, monospace;&quot;&gt;&lt;span style=&quot;color: rgb(207, 142, 109);&quot;&gt;&lt;font style=&quot;font-size: 10px;&quot;&gt;return false&lt;/font&gt;&lt;/span&gt;&lt;/pre&gt;&lt;/div&gt;" style="text;whiteSpace=wrap;html=1;" vertex="1" parent="1">
          <mxGeometry x="150" y="640" width="120" height="70" as="geometry" />
        </mxCell>
        <mxCell id="0VPr1rxeREGL98D7X7g_-52" value="" style="endArrow=classic;html=1;rounded=0;entryX=1;entryY=0;entryDx=0;entryDy=0;" edge="1" parent="1" target="0VPr1rxeREGL98D7X7g_-50">
          <mxGeometry width="50" height="50" relative="1" as="geometry">
            <mxPoint x="260" y="554" as="sourcePoint" />
            <mxPoint x="191" y="585" as="targetPoint" />
          </mxGeometry>
        </mxCell>
        <mxCell id="0VPr1rxeREGL98D7X7g_-53" value="" style="curved=1;endArrow=classic;html=1;rounded=0;exitX=0.5;exitY=0;exitDx=0;exitDy=0;" edge="1" parent="1" source="0VPr1rxeREGL98D7X7g_-48">
          <mxGeometry width="50" height="50" relative="1" as="geometry">
            <mxPoint x="320" y="530" as="sourcePoint" />
            <mxPoint x="360" y="480" as="targetPoint" />
            <Array as="points">
              <mxPoint x="300" y="480" />
              <mxPoint x="330" y="470" />
            </Array>
          </mxGeometry>
        </mxCell>
        <mxCell id="0VPr1rxeREGL98D7X7g_-54" value="this != other" style="text;html=1;align=center;verticalAlign=middle;resizable=0;points=[];autosize=1;strokeColor=none;fillColor=none;" vertex="1" parent="1">
          <mxGeometry x="330" y="90" width="90" height="30" as="geometry" />
        </mxCell>
        <mxCell id="0VPr1rxeREGL98D7X7g_-55" value="one == other" style="text;html=1;align=center;verticalAlign=middle;resizable=0;points=[];autosize=1;strokeColor=none;fillColor=none;" vertex="1" parent="1">
          <mxGeometry x="210" y="218" width="90" height="30" as="geometry" />
        </mxCell>
        <mxCell id="0VPr1rxeREGL98D7X7g_-56" value="one != other" style="text;html=1;align=center;verticalAlign=middle;resizable=0;points=[];autosize=1;strokeColor=none;fillColor=none;" vertex="1" parent="1">
          <mxGeometry x="380" y="218" width="90" height="30" as="geometry" />
        </mxCell>
        <mxCell id="0VPr1rxeREGL98D7X7g_-57" value="one != null &amp;amp;&amp;amp; other != null" style="text;html=1;align=center;verticalAlign=middle;resizable=0;points=[];autosize=1;strokeColor=none;fillColor=none;" vertex="1" parent="1">
          <mxGeometry x="400" y="310" width="160" height="30" as="geometry" />
        </mxCell>
        <mxCell id="0VPr1rxeREGL98D7X7g_-63" value="&lt;font style=&quot;font-size: 10px;&quot;&gt;!it1.hasNext() &amp;amp;&amp;amp; !it2.hasNext()&lt;/font&gt;" style="text;html=1;align=center;verticalAlign=middle;resizable=0;points=[];autosize=1;strokeColor=none;fillColor=none;" vertex="1" parent="1">
          <mxGeometry x="540" y="560" width="160" height="30" as="geometry" />
        </mxCell>
        <mxCell id="0VPr1rxeREGL98D7X7g_-64" value="&lt;font style=&quot;font-size: 9px;&quot;&gt;it1.hasNext() || it2.hasNext()&lt;/font&gt;" style="text;html=1;align=center;verticalAlign=middle;resizable=0;points=[];autosize=1;strokeColor=none;fillColor=none;" vertex="1" parent="1">
          <mxGeometry x="400" y="580" width="140" height="30" as="geometry" />
        </mxCell>
        <mxCell id="0VPr1rxeREGL98D7X7g_-65" value="&lt;font style=&quot;font-size: 9px;&quot;&gt;!it.next().equals(it2.next())&lt;/font&gt;" style="text;html=1;align=center;verticalAlign=middle;resizable=0;points=[];autosize=1;strokeColor=none;fillColor=none;" vertex="1" parent="1">
          <mxGeometry x="95" y="555" width="130" height="30" as="geometry" />
        </mxCell>
      </root>
    </mxGraphModel>
  </diagram>
</mxfile>
